<svg width="80" height="43" viewBox="0 0 80 43" fill="none" xmlns="http://www.w3.org/2000/svg">
<path d="M2.49603 34.4424C2.13835 33.8214 1.66144 32.8293 1.36689 32.0948C-0.351372 27.7932 -0.428519 23.3403 1.01622 19.069C2.60824 14.3813 5.65201 10.7992 9.58647 8.96654C14.5308 6.67189 19.9942 7.1187 24.7352 10.1555C27.7439 12.0185 29.8759 14.8963 31.496 18.9706C31.6994 19.4931 31.8817 20.046 32.0641 20.5231L2.49603 34.4424ZM12.3708 15.8808C8.85709 17.509 7.04766 21.0683 7.42638 25.2335L22.2946 18.3193C19.7347 15.078 16.4104 14.0026 12.3708 15.8808V15.8808ZM24.1461 30.9209C24.1391 30.9209 24.1391 30.9285 24.1391 30.9285L23.8305 30.7013C22.9398 32.2538 21.5582 33.5185 19.8119 34.3364C16.4876 35.8964 13.4087 35.4951 11.1925 33.3973L10.9891 33.7305C10.9891 33.7305 10.9891 33.723 10.9821 33.723L7.20896 39.8193C8.14874 40.5236 9.15165 41.1143 10.2036 41.5914C14.3695 43.462 18.6336 43.3711 22.8346 41.4021C25.8714 39.9783 28.2559 37.8124 29.883 35.0634L24.1461 30.9209ZM42.3947 0V33.882L47.2759 36.0176L44.5057 43L39.1195 40.5766C37.9132 40.0086 37.0856 39.1453 36.4685 38.1684C35.8723 37.1763 35.4305 35.8056 35.4305 33.9729V0H42.3947ZM55.0327 25.2563C55.0327 22.3709 56.2179 19.7809 58.0834 18.024L53.0759 11.9958C49.6815 15.2371 47.5425 19.9702 47.5425 25.2411C47.5354 30.5195 49.6745 35.2603 53.0619 38.5016L58.0624 32.4734C56.2039 30.7089 55.0327 28.134 55.0327 25.2563V25.2563ZM63.9255 34.8665C62.9437 34.8665 61.9898 34.6847 61.1062 34.3667L58.7146 42.0382C60.3487 42.6289 62.095 42.9546 63.9185 42.9546C71.8435 42.9621 78.4571 36.8885 79.993 28.8232L72.643 27.2025C71.8085 31.5874 68.2247 34.8741 63.9255 34.8665V34.8665ZM63.9466 7.55794C62.1301 7.55794 60.3838 7.87601 58.7497 8.45914L61.1202 16.1383C62.0109 15.8202 62.9577 15.646 63.9395 15.646C68.2457 15.6536 71.8365 18.9554 72.6501 23.3478L80 21.7423C78.4921 13.6619 71.8786 7.56551 63.9466 7.55794V7.55794Z" fill="white"/>
</svg>
